<?xml version="1.0" encoding="utf-8"?>
<!-- Generator: Adobe Illustrator 26.3.1, SVG Export Plug-In . SVG Version: 6.00 Build 0)  -->
<svg version="1.1" id="Layer_1" xmlns="http://www.w3.org/2000/svg" xmlns:xlink="http://www.w3.org/1999/xlink" x="0px" y="0px"
	 viewBox="0 0 220.6 136.2" style="enable-background:new 0 0 220.6 136.2;" xml:space="preserve">
<style type="text/css">
	.st0{fill:none;stroke:#1D1D1B;stroke-width:15;stroke-miterlimit:10;}
	.st1{fill:#FFFFFF;stroke:#000000;stroke-miterlimit:10;}
</style>
<path class="st0" d="M1.9,14.3c1.3,0,2.5,0.1,3.7,0.2c28.1,3.2,47,41.5,55.5,62.2"/>
<path class="st0" d="M15.9,126.3C53.3,147.5,65.3,16.9,116.2,17.6"/>
<path class="st0" d="M115.2,17.6c16.5-1.1,33-1.3,49.5-0.5c7.8,0.4,15.5-0.1,23.3,0c11.5,0.1,16.7,0.4,20.6-3.3
	c4.2-3.9,4.6-10,4.6-13.8"/>
<path class="st0" d="M120.6,121.2c4.6,2.8,9.6,4.7,14.9,5.8c5.5,1.1,17.1,3.4,22.8-2.4c2.7-2.7,2.5-5.6,2.2-24.3
	c-0.1-8.7-0.2-17.3-0.4-26s-0.2-17.5-0.4-26.3c0-3-0.3-21.4-0.4-24.3"/>
<path class="st1" d="M214.4,4.1"/>
</svg>
